P1
20 12
11111111111111111111
11110000000000011111
11110011111110011111
11110011111110011111
11110011111110011111
11110011111110011111
11111000000000111111
11110011111110011111
11110011111110011111
11110011111110011111
11110011111110011111
11110000000000011111
