P1
20 12
00000000000000000000
00001111111111100000
00001100000001100000
00001100000001100000
00001100000001100000
00001100000001100000
00000111111111000000
00001100000001100000
00001100000001100000
00001100000001100000
00001100000001100000
00001111111111100000