P2
10 10
50
35 0 0 0 0 0 0 0 0 0
35 30 30 30 30 30 30 30 30 35
35 35 35 30 30 30 30 30 35 35
35 35 35 50 50 50 50 50 35 35
35 35 35 50 50 50 50 50 35 35
35 0 0 50 50 50 50 50 0 0
35 0 0 50 50 50 50 50 0 0
35 0 0 30 30 30 30 30 0 0
35 0 0 30 30 30 30 30 0 0
35 0 0 0 0 0 0 0 0 0
